# xmcd CD database file
#
# Track frame offsets:
#	150
#	18165
#	25995
#	40149
#	54673
#	65406
#	80212
#	95784
#	110020
#	120114
#	139861
#	148351
#	159979
#	173153
#	182783
#	207916
#	218569
#	231342
#	243080
#	253345
#	272423
#	287397
#	300644
#	314982
#	323948
#	332673
#
# Disc length: 4653 seconds
#
# Revision: 0
# Processed by: cddbd v1.5.1PL0 Copyright (c) Steve Scherf et al.
# Submitted via: CDex 1.51
#
DISCID=83122b1a
DTITLE=Marty Robbins - Ultimate Cowboy Songs
DYEAR=1900
DGENRE=Country
TTITLE0=01-Big Iron
TTITLE1=02-A Hundred And Sixty Acres
TTITLE2=03-They're Hanging Me Tonight
TTITLE3=04-Cool Water
TTITLE4=05-Billy The Kid
TTITLE5=06-Utah Carrol
TTITLE6=07-The Strawberry Roan
TTITLE7=08-The Master's Call
TTITLE8=09-Running Gun
TTITLE9=10-El Paso
TTITLE10=11-In The Valley
TTITLE11=12-The Little Green Valley
TTITLE12=13-The Hanging Tree (Single A Side)
TTITLE13=14-Saddle Tramp (B Side Of Big Iron)
TTITLE14=15-San Angelo
TTITLE15=16-Prairie Fire
TTITLE16=17-Streets Of Laredo
TTITLE17=18-Song Of The Bandit
TTITLE18=19-Five Brothers
TTITLE19=20-Little Joe The Wrangler
TTITLE20=21-Ride Cowboy Ride
TTITLE21=22-Devil Woman
TTITLE22=23-Man Walks Among Us
TTITLE23=24-Beautiful Dreamer
TTITLE24=25-I'm Gonna Be A Cowboy
TTITLE25=26-(Ghost) Riders In The Sky
EXTD=
EXTT0=
EXTT1=
EXTT2=
EXTT3=
EXTT4=
EXTT5=
EXTT6=
EXTT7=
EXTT8=
EXTT9=
EXTT10=
EXTT11=
EXTT12=
EXTT13=
EXTT14=
EXTT15=
EXTT16=
EXTT17=
EXTT18=
EXTT19=
EXTT20=
EXTT21=
EXTT22=
EXTT23=
EXTT24=
EXTT25=
PLAYORDER=
